<svg width="30" height="30" viewBox="0 0 30 30" fill="none" xmlns="http://www.w3.org/2000/svg">
<g id="Group 72">
<mask id="mask0_1_120" style="mask-type:alpha" maskUnits="userSpaceOnUse" x="0" y="0" width="30" height="30">
<circle id="Ellipse 5" cx="14.6154" cy="14.6154" r="14.6154" fill="#D9D9D9"/>
</mask>
<g mask="url(#mask0_1_120)">
<path id="Vector" d="M14.6155 -4.61536C3.99454 -4.61536 -4.61523 3.99442 -4.61523 14.6154C-4.61523 25.2364 3.99454 33.8462 14.6155 33.8462C25.2365 33.8462 33.8463 25.2364 33.8463 14.6154C33.8463 3.99442 25.2365 -4.61536 14.6155 -4.61536ZM22.438 11.1378C22.4461 11.3021 22.4481 11.4664 22.4481 11.6266C22.4481 16.6346 18.64 22.4059 11.6728 22.4059C9.61412 22.4093 7.59824 21.818 5.86754 20.7032C6.16201 20.7392 6.46449 20.7532 6.77098 20.7532C8.54582 20.7532 10.1784 20.1503 11.4745 19.1326C10.6847 19.1171 9.91936 18.8556 9.28523 18.3845C8.65109 17.9134 8.17974 17.2562 7.93685 16.5044C8.50407 16.6123 9.08839 16.5897 9.64558 16.4383C8.78831 16.265 8.01737 15.8005 7.46351 15.1236C6.90964 14.4466 6.60693 13.599 6.60672 12.7244V12.6783C7.11754 12.9608 7.70247 13.133 8.32347 13.1531C7.51978 12.6181 6.95084 11.7962 6.73301 10.8557C6.51518 9.91508 6.66492 8.92682 7.15159 8.09298C8.10302 9.26285 9.28953 10.2199 10.6343 10.9021C11.9791 11.5843 13.4521 11.9765 14.9581 12.0533C14.7666 11.2406 14.849 10.3875 15.1925 9.62644C15.5359 8.86542 16.1212 8.23919 16.8573 7.84511C17.5933 7.45103 18.439 7.31117 19.2628 7.44729C20.0865 7.5834 20.8422 7.98786 21.4124 8.59778C22.2601 8.43007 23.073 8.11913 23.8163 7.67831C23.5337 8.55599 22.9422 9.30126 22.1516 9.77567C22.9025 9.68523 23.6357 9.48336 24.3271 9.17671C23.8192 9.93772 23.1795 10.6019 22.438 11.1378Z" fill="#E3EFFF"/>
</g>
</g>
</svg>
