<svg width="28" height="28" viewBox="0 0 28 28" fill="none" xmlns="http://www.w3.org/2000/svg">
<g id="navigation-pointer-01">
<path id="Icon" d="M3.9822 12.5352C3.28763 12.2651 2.94034 12.1301 2.83895 11.9355C2.75106 11.7668 2.75094 11.5658 2.83864 11.397C2.9398 11.2023 3.28692 11.0668 3.98118 10.7959L23.6835 3.10715C24.3103 2.86258 24.6236 2.7403 24.8238 2.80719C24.9977 2.86528 25.1342 3.00174 25.1923 3.17563C25.2592 3.37587 25.1369 3.68922 24.8923 4.31593L17.2036 24.0183C16.9327 24.7126 16.7972 25.0597 16.6025 25.1608C16.4337 25.2485 16.2327 25.2484 16.064 25.1605C15.8694 25.0591 15.7344 24.7118 15.4643 24.0173L12.3981 16.1329C12.3433 15.992 12.3159 15.9215 12.2735 15.8621C12.236 15.8095 12.19 15.7635 12.1374 15.7259C12.078 15.6836 12.0075 15.6562 11.8665 15.6014L3.9822 12.5352Z" fill="#191D27" stroke="#E3EFFF" stroke-width="1.6" stroke-linecap="round" stroke-linejoin="round"/>
</g>
</svg>
