<svg width="32" height="32" viewBox="0 0 32 32" fill="none" xmlns="http://www.w3.org/2000/svg">
<g id="package">
<g id="Icon">
<path d="M14.964 3.24224C15.3421 3.03217 15.5312 2.92713 15.7314 2.88595C15.9086 2.8495 16.0914 2.8495 16.2686 2.88595C16.4688 2.92713 16.6579 3.03217 17.036 3.24224L26.9027 8.72373C27.3021 8.9456 27.5018 9.05653 27.6472 9.21431C27.7758 9.3539 27.8731 9.51934 27.9327 9.69958C28 9.90331 28 10.1317 28 10.5886V21.4114C28 21.8683 28 22.0967 27.9327 22.3004C27.8731 22.4807 27.7758 22.6461 27.6472 22.7857C27.5018 22.9435 27.3021 23.0544 26.9027 23.2763L17.036 28.7578C16.6579 28.9678 16.4688 29.0729 16.2686 29.1141C16.0914 29.1505 15.9086 29.1505 15.7314 29.1141C15.5312 29.0729 15.3421 28.9678 14.964 28.7578L5.0973 23.2763C4.69793 23.0544 4.49825 22.9435 4.35284 22.7857C4.22421 22.6461 4.12686 22.4807 4.06731 22.3004C4 22.0967 4 21.8683 4 21.4114V10.5886C4 10.1317 4 9.90331 4.06731 9.69958C4.12686 9.51934 4.22421 9.3539 4.35284 9.21432C4.49825 9.05653 4.69793 8.9456 5.09729 8.72373L14.964 3.24224Z" fill="#191D27"/>
<path d="M27.3333 9.70367L16 16M16 16L4.66662 9.70367M16 16L16 28.6667M28 21.4114V10.5886C28 10.1317 28 9.90331 27.9327 9.69958C27.8731 9.51934 27.7758 9.3539 27.6472 9.21431C27.5018 9.05653 27.3021 8.9456 26.9027 8.72373L17.036 3.24224C16.6579 3.03217 16.4688 2.92713 16.2686 2.88595C16.0914 2.8495 15.9086 2.8495 15.7314 2.88595C15.5312 2.92713 15.3421 3.03217 14.964 3.24224L5.09729 8.72373C4.69793 8.9456 4.49825 9.05653 4.35284 9.21432C4.22421 9.3539 4.12686 9.51934 4.06731 9.69958C4 9.90331 4 10.1317 4 10.5886V21.4114C4 21.8683 4 22.0967 4.06731 22.3004C4.12686 22.4807 4.22421 22.6461 4.35284 22.7857C4.49825 22.9435 4.69793 23.0544 5.0973 23.2763L14.964 28.7578C15.3421 28.9678 15.5312 29.0729 15.7314 29.1141C15.9086 29.1505 16.0914 29.1505 16.2686 29.1141C16.4688 29.0729 16.6579 28.9678 17.036 28.7578L26.9027 23.2763C27.3021 23.0544 27.5018 22.9435 27.6472 22.7857C27.7758 22.6461 27.8731 22.4807 27.9327 22.3004C28 22.0967 28 21.8683 28 21.4114Z" stroke="#E3EFFF" stroke-width="1.6" stroke-linecap="round" stroke-linejoin="round"/>
</g>
<path id="Icon_2" d="M22 12.6667L10 6" stroke="#E3EFFF" stroke-width="1.6" stroke-linecap="round" stroke-linejoin="round"/>
</g>
</svg>
