<svg width="406" height="52" viewBox="0 0 406 52" fill="none" xmlns="http://www.w3.org/2000/svg">
<path d="M22.8637 43.1484H21.7275C22.0969 43.1484 22.4607 43.0876 22.8022 42.9827L22.8637 43.1484Z" fill="#7F7F7F"/>
<path d="M38.9941 23.451H32.7031V43.3142H38.9941V23.451Z" fill="#00FF85"/>
<path d="M76.2979 35.6176H75.7214V35.0485L76.2979 35.6176C77.8259 35.6176 79.214 35.0043 80.2158 34.0153C81.2177 33.0262 81.8389 31.656 81.8389 30.1476V28.921C81.8389 25.8987 79.3595 23.451 76.2979 23.451H61.7178V27.9265H74.0927C74.9938 27.9265 75.7214 28.6448 75.7214 29.5343C75.7214 30.4239 74.9938 31.1421 74.0927 31.1421H68.3278V31.1477H61.7178V43.3087H66.8726V35.6176H68.2774L76.0684 43.3087H84.0833L76.2979 35.6176Z" fill="#00FF85"/>
<path d="M82.3374 30.3962V36.3635C82.3374 40.198 85.4885 43.3087 89.3728 43.3087H99.8672C103.751 43.3087 106.903 40.198 106.903 36.3635V30.3962C106.903 26.5617 103.751 23.451 99.8672 23.451H89.3728C85.4885 23.451 82.3374 26.5617 82.3374 30.3962ZM88.6788 36.5845V30.1752C88.6788 28.9321 89.6974 27.9265 90.9568 27.9265H98.2888C99.5481 27.9265 100.567 28.9321 100.567 30.1752V36.579C100.567 37.8221 99.5481 38.8277 98.2888 38.8277H90.9568C89.6974 38.8332 88.6788 37.8277 88.6788 36.5845Z" fill="#00FF85"/>
<path d="M158.652 17.1854V22.8653H148.79V43.3086H142.085V22.8653H132.262V17.1854H158.652Z" fill="#00FF85"/>
<path d="M108.391 17.1855V43.3087H123.8C127.606 43.3087 130.695 40.2643 130.695 36.5016V34.8164C130.695 33.4075 130.18 32.0483 129.245 30.9819L128.602 30.2471L129.184 29.6006C130.158 28.5232 130.695 27.1364 130.695 25.6943V23.987C130.695 20.2298 127.611 17.1799 123.8 17.1799H108.391V17.1855ZM123.089 37.7061H113.557V32.634H123.089C124.141 32.634 124.997 33.4793 124.997 34.5181V35.822C124.997 36.8607 124.141 37.7061 123.089 37.7061ZM123.089 27.932H113.557V22.8654H123.089C124.141 22.8654 124.997 23.7107 124.997 24.7495V26.0534C124.997 27.0922 124.141 27.932 123.089 27.932Z" fill="#00FF85"/>
<path d="M76.2982 35.6175H75.7217V35.054L76.2982 35.6175Z" fill="#00FF85"/>
<path d="M76.2982 35.6175H75.7217V35.054L76.2982 35.6175Z" fill="#00FF85"/>
<path d="M76.2982 35.6175H75.7217V35.054L76.2982 35.6175Z" fill="#00FF85"/>
<path d="M47.1152 30.3576V36.4077C47.1152 37.6785 48.1619 38.7117 49.4492 38.7117H59.1152V43.3087H47.6246C43.869 43.3087 40.8242 40.303 40.8242 36.5955V30.1642C40.8242 26.4568 43.869 23.451 47.6246 23.451H59.1152V28.0536H49.4492C48.1563 28.0536 47.1152 29.0812 47.1152 30.3576Z" fill="#00FF85"/>
<path d="M38.9943 17.6716H34.2368V22.3681H38.9943V17.6716Z" fill="#00FF85"/>
<path d="M41.994 12.5443H37.897V16.3015H41.994V12.5443Z" fill="#00FF85"/>
<path d="M36.2852 9.43909H33.1396V12.5443H36.2852V9.43909Z" fill="#00FF85"/>
<path d="M46.6733 12.1133H43.5278V14.6383H46.6733V12.1133Z" fill="#00FF85"/>
<path d="M32.1043 17.2407V23.4565C31.5054 23.567 31.0185 23.9814 30.817 24.5339L28.22 31.8272L25.0073 40.8554C24.6435 41.8831 23.8152 42.6566 22.8021 42.9826C22.4607 43.0931 22.1025 43.1484 21.7275 43.1484H18.6548C17.1771 43.1484 15.8675 42.2312 15.3749 40.8554L12.1622 31.8272L9.56525 24.5339C9.291 23.788 8.49622 23.2908 7.6119 23.4621C6.82273 23.6168 6.24624 24.3185 6.24624 25.1141C6.24624 25.2467 6.26303 25.3738 6.29101 25.4953V43.3086H0V25.1086C0 21.0862 3.05036 17.7711 6.99064 17.2904C7.31526 17.2517 7.64548 17.2296 7.9813 17.2296C11.4234 17.2296 14.3563 19.3844 15.4757 22.4012C15.4757 22.4067 15.4813 22.4123 15.4813 22.4178L15.5428 22.5891C15.5428 22.5946 15.5428 22.5946 15.5484 22.6001L20.1939 35.6452L24.8394 22.6001C24.8394 22.5946 24.8394 22.5946 24.845 22.5891L24.9066 22.4178C24.9066 22.4123 24.9122 22.4067 24.9122 22.4012C25.9924 19.4729 28.7909 17.3567 32.1043 17.2407Z" fill="#00FF85"/>
<line x1="182.29" y1="50.7566" x2="205.322" y2="1.36283" stroke="#00FF85" stroke-width="1.5" stroke-linecap="round"/>
<path d="M230.319 37.3952C230.319 30.0609 230.319 22.7585 230.319 15.437C230.594 15.4179 230.806 15.3924 231.025 15.3924C236.813 15.3924 242.6 15.3606 248.388 15.437C249.6 15.456 250.857 15.7423 252.013 16.1494C253.65 16.7219 254.4 18.0831 254.463 19.8261C254.488 20.583 254.463 21.3463 254.469 22.1033C254.488 23.7699 253.869 25.0484 252.325 25.7609C252.344 25.8308 252.344 25.9263 252.375 25.939C254.225 26.6451 254.863 28.0763 254.763 29.9846C254.713 31.0278 254.782 32.0774 254.719 33.1206C254.607 35.1116 253.457 36.352 251.657 36.8481C250.382 37.2043 249.032 37.4015 247.707 37.4142C242.113 37.4779 236.506 37.446 230.906 37.4397C230.725 37.4397 230.544 37.4142 230.319 37.3952ZM241.656 27.5992C239.481 27.5992 237.306 27.6119 235.131 27.5865C234.55 27.5801 234.288 27.7201 234.306 28.3753C234.344 30.0482 234.331 31.7275 234.313 33.4068C234.306 33.9539 234.438 34.2019 235.038 34.2019C239.419 34.1828 243.806 34.221 248.188 34.151C248.869 34.1383 249.657 33.8012 250.194 33.3623C250.957 32.7389 251.013 29.2658 250.369 28.4834C250.125 28.1844 249.75 27.9427 249.382 27.8218C248.919 27.6692 248.407 27.6183 247.919 27.6119C245.825 27.5865 243.744 27.5992 241.656 27.5992ZM234.369 24.3042C234.719 24.3169 235.025 24.3424 235.331 24.3424C237.419 24.3487 239.506 24.3424 241.594 24.3424C243.9 24.3424 246.207 24.3615 248.507 24.3296C249.869 24.3106 250.375 23.8017 250.432 22.4404C250.463 21.6835 250.413 20.9202 250.388 20.1632C250.363 19.3808 249.932 18.9355 249.207 18.7892C248.782 18.7002 248.344 18.6365 247.913 18.6365C243.675 18.6238 239.444 18.6302 235.206 18.6302C234.938 18.6302 234.669 18.6684 234.369 18.6938C234.369 20.5957 234.369 22.415 234.369 24.3042Z" fill="#00FF85"/>
<path d="M330.07 37.3887C328.82 37.3887 327.645 37.3887 326.37 37.3887C326.37 32.3254 326.37 27.3129 326.37 22.0142C326.014 22.4722 325.82 22.7012 325.651 22.9429C322.395 27.5037 319.132 32.0582 315.901 36.6381C315.47 37.2488 314.995 37.3824 314.295 37.4714C312.57 37.7004 311.564 36.9816 310.595 35.544C307.732 31.3203 304.695 27.2238 301.72 23.0828C301.539 22.8348 301.345 22.5994 301.02 22.1796C301.02 27.3638 301.02 32.3445 301.02 37.3824C299.726 37.3824 298.532 37.3824 297.282 37.3824C297.282 30.0736 297.282 22.8029 297.282 15.3924C298.432 15.3924 299.57 15.3542 300.707 15.4242C300.964 15.4369 301.251 15.7931 301.439 16.0539C305.364 21.5307 309.282 27.0139 313.201 32.4971C313.382 32.7516 313.576 32.9996 313.826 33.3368C314.132 32.917 314.414 32.548 314.676 32.1727C318.495 26.8104 322.314 21.4544 326.108 16.0794C326.483 15.5514 326.864 15.3351 327.489 15.3733C328.326 15.4242 329.164 15.386 330.07 15.386C330.07 22.7393 330.07 30.0354 330.07 37.3887Z" fill="#00FF85"/>
<path d="M379.977 37.3951C378.783 37.3951 377.702 37.3951 376.545 37.3951C376.545 30.099 376.545 22.8093 376.545 15.4496C378.327 15.3351 379.952 15.2715 381.583 16.5564C387.833 21.4798 394.214 26.2252 400.552 31.0404C400.796 31.2249 401.052 31.3967 401.446 31.6765C401.446 26.1997 401.446 20.8692 401.446 15.4623C402.683 15.4623 403.821 15.4623 405.014 15.4623C405.014 22.7457 405.014 30.0481 405.014 37.4078C404.014 37.4523 403.133 37.5032 402.208 36.8099C395.127 31.4794 388.002 26.2188 380.883 20.9392C380.639 20.7611 380.383 20.6084 379.97 20.3349C379.977 26.117 379.977 31.7338 379.977 37.3951Z" fill="#00FF85"/>
<path d="M332.851 37.446C334.914 34.2846 336.851 31.3013 338.795 28.3307C341.451 24.266 344.12 20.2204 346.745 16.143C347.12 15.5642 347.532 15.4433 348.17 15.367C349.676 15.1825 350.533 15.7741 351.358 17.0781C355.514 23.6554 359.789 30.1563 364.02 36.6827C364.151 36.8863 364.27 37.1025 364.476 37.446C362.964 37.446 361.576 37.4778 360.195 37.4142C359.958 37.4015 359.676 37.0262 359.508 36.7654C356.058 31.3077 352.626 25.8372 349.183 20.3731C349.064 20.1886 348.939 20.0105 348.739 19.7179C347.77 21.2255 346.839 22.6567 345.92 24.1006C343.22 28.318 340.52 32.5353 337.845 36.7718C337.52 37.2806 337.189 37.5033 336.576 37.4715C335.401 37.4015 334.226 37.446 332.851 37.446Z" fill="#00FF85"/>
<path d="M282.669 18.6111C282.669 24.9658 282.669 31.1359 282.669 37.3761C281.307 37.3761 279.988 37.3761 278.582 37.3761C278.582 31.1614 278.582 24.9658 278.582 18.6747C274.807 18.6747 271.119 18.6747 267.344 18.6747C267.344 17.5615 267.344 16.5374 267.344 15.4561C276.082 15.4561 284.813 15.4561 293.62 15.4561C293.62 16.4484 293.62 17.4725 293.62 18.6111C290.019 18.6111 286.401 18.6111 282.669 18.6111Z" fill="#00FF85"/>
<path d="M367.427 15.2397C368.827 15.2397 370.158 15.2397 371.558 15.2397C371.558 22.6185 371.558 29.9718 371.558 37.3888C370.202 37.3888 368.852 37.3888 367.427 37.3888C367.427 30.0418 367.427 22.6885 367.427 15.2397Z" fill="#00FF85"/>
<path d="M259.563 37.3887C259.563 29.9845 259.563 22.6503 259.563 15.2651C260.894 15.2651 262.188 15.2651 263.544 15.2651C263.544 22.6248 263.544 29.9781 263.544 37.3887C262.238 37.3887 260.951 37.3887 259.563 37.3887Z" fill="#00FF85"/>
</svg>
