<svg xmlns="http://www.w3.org/2000/svg" width="110" height="24" viewBox="0 0 110 24" fill="none">
  <path d="M9.20207 0.269531H3.77447L0 23.7011H3.4018L6.30194 4.4207L8.59529 19.4456L9.23552 23.7011H12.9765L9.20207 0.269531Z" fill="#00FF85"/>
  <path d="M49.7859 0.269531H44.3584L40.5791 23.7011H43.9809L46.8858 4.4207L49.1792 19.4456L49.8194 23.7011H53.5604L49.7859 0.269531Z" fill="#00FF85"/>
  <path d="M13.067 5.89229C13.067 3.99461 13.5209 2.53814 14.4335 1.52289C15.3413 0.507628 16.7077 0 18.5281 0C20.3484 0 21.7149 0.507628 22.6227 1.52289C23.5304 2.53814 23.9891 3.99461 23.9891 5.89229V6.79368H20.4822V5.65508C20.4822 4.80587 20.3198 4.21284 19.9949 3.86652C19.67 3.52019 19.2161 3.3494 18.6284 3.3494C18.0455 3.3494 17.5868 3.52019 17.2619 3.86652C16.9371 4.21284 16.7746 4.81061 16.7746 5.65508C16.7746 6.45685 16.9562 7.16848 17.3145 7.78048C17.6728 8.39248 18.122 8.97601 18.6618 9.5216C19.2017 10.0672 19.7799 10.6175 20.3962 11.1631C21.0125 11.7087 21.5907 12.3064 22.1305 12.9516C22.6704 13.5969 23.1195 14.337 23.4779 15.1624C23.8362 15.9879 24.0178 16.9605 24.0178 18.0754C24.0178 19.9731 23.5496 21.4295 22.6179 22.4448C21.6862 23.46 20.3102 23.9677 18.4898 23.9677C16.6695 23.9677 15.2935 23.46 14.3618 22.4448C13.4301 21.4295 12.9619 19.9731 12.9619 18.0754V16.4671H16.4688V18.3078C16.4688 19.1571 16.6408 19.7453 16.9896 20.0822C17.3384 20.419 17.8018 20.5851 18.3895 20.5851C18.9724 20.5851 19.4406 20.419 19.7894 20.0822C20.1382 19.7453 20.3102 19.1571 20.3102 18.3078C20.3102 17.5061 20.1286 16.7944 19.7703 16.1824C19.412 15.5704 18.9628 14.9869 18.423 14.4413C17.8831 13.8957 17.3049 13.3502 16.6886 12.7998C16.0723 12.2542 15.4942 11.6565 14.9543 11.0113C14.4144 10.3661 13.9653 9.62597 13.6069 8.80048C13.2486 7.97973 13.067 7.00717 13.067 5.89229Z" fill="#00FF85"/>
  <path d="M28.5757 0.269531H24.8682V23.7011H28.5757V0.269531Z" fill="#00FF85"/>
  <path d="M40.5012 14.9632V18.0754C40.5012 19.9731 40.033 21.4295 39.1013 22.4448C38.1696 23.46 36.7936 23.9677 34.9732 23.9677C33.1529 23.9677 31.7769 23.46 30.8452 22.4448C29.9135 21.4295 29.4453 19.9731 29.4453 18.0754V5.89229C29.4453 3.99461 29.9135 2.53814 30.8452 1.52289C31.7769 0.507628 33.1529 0 34.9732 0C36.7936 0 38.1696 0.507628 39.1013 1.52289C40.033 2.53814 40.5012 3.99461 40.5012 5.89229V8.1695H36.9943V5.65982C36.9943 4.81061 36.8223 4.21759 36.4735 3.87126C36.1247 3.52494 35.6565 3.35414 35.0736 3.35414C34.4907 3.35414 34.0225 3.52494 33.6737 3.87126C33.3249 4.21759 33.1529 4.81535 33.1529 5.65982V18.3126C33.1529 19.1618 33.3249 19.7501 33.6737 20.0869C34.0225 20.4237 34.4859 20.5898 35.0736 20.5898C35.6565 20.5898 36.1247 20.4237 36.4735 20.0869C36.8223 19.7501 36.9943 19.1618 36.9943 18.3126V14.9632H40.5012Z" fill="#00FF85"/>
  <path d="M57.4053 19.3791L60.2338 0.269531H63.6404L59.9997 23.7011H54.4718L50.8311 0.269531H54.5721L57.4053 19.3791Z" fill="#00FF85"/>
  <path d="M68.1939 10.1422H73.2823V13.4916H68.1939V20.3517H74.601V23.7011H64.4863V0.269531H74.601V3.61419H68.1939V10.1422Z" fill="#00FF85"/>
  <path d="M78.7528 6.73112V23.7011H75.4131V0.269531H80.0667L83.8746 14.2934V0.269531H87.1808V23.7011H83.3681L78.7528 6.73112Z" fill="#00FF85"/>
  <path d="M91.6968 0.269531V18.3449C91.6968 19.1941 91.8688 19.7824 92.2176 20.1192C92.5664 20.4561 93.0299 20.6221 93.6175 20.6221C94.2004 20.6221 94.6686 20.4561 95.0174 20.1192C95.3662 19.7824 95.5382 19.1941 95.5382 18.3449V0.269531H99.0451V18.1077C99.0451 20.0054 98.5769 21.4618 97.6452 22.4771C96.7135 23.4924 95.3375 24 93.5172 24C91.6968 24 90.3208 23.4924 89.3892 22.4771C88.4575 21.4618 87.9893 20.0054 87.9893 18.1077V0.269531H91.6968Z" fill="#00FF85"/>
  <path d="M103.597 10.1422H108.685V13.4916H103.597V20.3517H109.999V23.7011H99.8848V0.269531H109.999V3.61419H103.597V10.1422Z" fill="#00FF85"/>
</svg>