<svg width="32" height="32" viewBox="0 0 32 32" fill="none" xmlns="http://www.w3.org/2000/svg">
<g id="shield-tick">
<g id="Icon">
<path d="M15.0695 28.8198C15.3647 28.992 15.5123 29.0781 15.7206 29.1228C15.8822 29.1575 16.1181 29.1575 16.2797 29.1228C16.488 29.0781 16.6356 28.992 16.9308 28.8198C19.5282 27.3045 26.6668 22.5446 26.6668 16V9.62346C26.6668 8.55744 26.6668 8.02444 26.4925 7.56626C26.3385 7.16151 26.0882 6.80036 25.7633 6.51403C25.3955 6.18991 24.8964 6.00276 23.8983 5.62845L16.7492 2.94756C16.472 2.84361 16.3334 2.79163 16.1909 2.77103C16.0644 2.75276 15.9359 2.75276 15.8095 2.77103C15.6669 2.79163 15.5283 2.84361 15.2511 2.94756L8.10204 5.62845C7.10389 6.00276 6.60482 6.18991 6.23704 6.51403C5.91214 6.80036 5.66186 7.16151 5.50784 7.56626C5.3335 8.02444 5.3335 8.55744 5.3335 9.62346V16C5.3335 22.5446 12.4721 27.3045 15.0695 28.8198Z" fill="#191D27"/>
<path d="M12.0002 15.3333L14.6668 18L20.6668 12M26.6668 16C26.6668 22.5446 19.5282 27.3045 16.9308 28.8198C16.6356 28.992 16.488 29.0781 16.2797 29.1228C16.1181 29.1575 15.8822 29.1575 15.7206 29.1228C15.5123 29.0781 15.3647 28.992 15.0695 28.8198C12.4721 27.3045 5.3335 22.5446 5.3335 16V9.62346C5.3335 8.55744 5.3335 8.02444 5.50784 7.56626C5.66186 7.16151 5.91214 6.80036 6.23704 6.51403C6.60482 6.18991 7.10389 6.00276 8.10204 5.62845L15.2511 2.94756C15.5283 2.84361 15.6669 2.79163 15.8095 2.77103C15.9359 2.75276 16.0644 2.75276 16.1908 2.77103C16.3334 2.79163 16.472 2.84361 16.7492 2.94756L23.8983 5.62845C24.8964 6.00276 25.3955 6.18991 25.7633 6.51403C26.0882 6.80036 26.3385 7.16151 26.4925 7.56626C26.6668 8.02444 26.6668 8.55744 26.6668 9.62346V16Z" stroke="#E3EFFF" stroke-width="1.6" stroke-linecap="round" stroke-linejoin="round"/>
</g>
</g>
</svg>
