<svg width="1640" height="200" viewBox="0 0 1640 200" fill="none" xmlns="http://www.w3.org/2000/svg">
<mask id="mask0_1_102" style="mask-type:alpha" maskUnits="userSpaceOnUse" x="0" y="0" width="1640" height="200">
<rect x="1640" y="200" width="1640" height="200" transform="rotate(-180 1640 200)" fill="url(#paint0_linear_1_102)"/>
</mask>
<g mask="url(#mask0_1_102)">
<path d="M1632 196C1632 193.791 1633.79 192 1636 192C1638.21 192 1640 193.791 1640 196C1640 198.209 1638.21 200 1636 200C1633.79 200 1632 198.209 1632 196Z" fill="#1B1F2B"/>
<path d="M1584 196C1584 193.791 1585.79 192 1588 192C1590.21 192 1592 193.791 1592 196C1592 198.209 1590.21 200 1588 200C1585.79 200 1584 198.209 1584 196Z" fill="#1B1F2B"/>
<path d="M1536 196C1536 193.791 1537.79 192 1540 192C1542.21 192 1544 193.791 1544 196C1544 198.209 1542.21 200 1540 200C1537.79 200 1536 198.209 1536 196Z" fill="#1B1F2B"/>
<path d="M1488 196C1488 193.791 1489.79 192 1492 192C1494.21 192 1496 193.791 1496 196C1496 198.209 1494.21 200 1492 200C1489.79 200 1488 198.209 1488 196Z" fill="#1B1F2B"/>
<path d="M1440 196C1440 193.791 1441.79 192 1444 192C1446.21 192 1448 193.791 1448 196C1448 198.209 1446.21 200 1444 200C1441.79 200 1440 198.209 1440 196Z" fill="#1B1F2B"/>
<path d="M1392 196C1392 193.791 1393.79 192 1396 192C1398.21 192 1400 193.791 1400 196C1400 198.209 1398.21 200 1396 200C1393.79 200 1392 198.209 1392 196Z" fill="#1B1F2B"/>
<path d="M1344 196C1344 193.791 1345.79 192 1348 192C1350.21 192 1352 193.791 1352 196C1352 198.209 1350.21 200 1348 200C1345.79 200 1344 198.209 1344 196Z" fill="#1B1F2B"/>
<path d="M1296 196C1296 193.791 1297.79 192 1300 192C1302.21 192 1304 193.791 1304 196C1304 198.209 1302.21 200 1300 200C1297.79 200 1296 198.209 1296 196Z" fill="#1B1F2B"/>
<path d="M1248 196C1248 193.791 1249.79 192 1252 192C1254.21 192 1256 193.791 1256 196C1256 198.209 1254.21 200 1252 200C1249.79 200 1248 198.209 1248 196Z" fill="#1B1F2B"/>
<path d="M1200 196C1200 193.791 1201.79 192 1204 192C1206.21 192 1208 193.791 1208 196C1208 198.209 1206.21 200 1204 200C1201.79 200 1200 198.209 1200 196Z" fill="#1B1F2B"/>
<path d="M1152 196C1152 193.791 1153.79 192 1156 192C1158.21 192 1160 193.791 1160 196C1160 198.209 1158.21 200 1156 200C1153.79 200 1152 198.209 1152 196Z" fill="#1B1F2B"/>
<path d="M1104 196C1104 193.791 1105.79 192 1108 192C1110.21 192 1112 193.791 1112 196C1112 198.209 1110.21 200 1108 200C1105.79 200 1104 198.209 1104 196Z" fill="#1B1F2B"/>
<path d="M1056 196C1056 193.791 1057.79 192 1060 192C1062.21 192 1064 193.791 1064 196C1064 198.209 1062.21 200 1060 200C1057.79 200 1056 198.209 1056 196Z" fill="#1B1F2B"/>
<path d="M1008 196C1008 193.791 1009.79 192 1012 192C1014.21 192 1016 193.791 1016 196C1016 198.209 1014.21 200 1012 200C1009.79 200 1008 198.209 1008 196Z" fill="#1B1F2B"/>
<path d="M960 196C960 193.791 961.791 192 964 192C966.209 192 968 193.791 968 196C968 198.209 966.209 200 964 200C961.791 200 960 198.209 960 196Z" fill="#1B1F2B"/>
<path d="M912 196C912 193.791 913.791 192 916 192C918.209 192 920 193.791 920 196C920 198.209 918.209 200 916 200C913.791 200 912 198.209 912 196Z" fill="#1B1F2B"/>
<path d="M864 196C864 193.791 865.791 192 868 192C870.209 192 872 193.791 872 196C872 198.209 870.209 200 868 200C865.791 200 864 198.209 864 196Z" fill="#1B1F2B"/>
<path d="M816 196C816 193.791 817.791 192 820 192C822.209 192 824 193.791 824 196C824 198.209 822.209 200 820 200C817.791 200 816 198.209 816 196Z" fill="#1B1F2B"/>
<path d="M768 196C768 193.791 769.791 192 772 192C774.209 192 776 193.791 776 196C776 198.209 774.209 200 772 200C769.791 200 768 198.209 768 196Z" fill="#1B1F2B"/>
<path d="M720 196C720 193.791 721.791 192 724 192C726.209 192 728 193.791 728 196C728 198.209 726.209 200 724 200C721.791 200 720 198.209 720 196Z" fill="#1B1F2B"/>
<path d="M672 196C672 193.791 673.791 192 676 192C678.209 192 680 193.791 680 196C680 198.209 678.209 200 676 200C673.791 200 672 198.209 672 196Z" fill="#1B1F2B"/>
<path d="M624 196C624 193.791 625.791 192 628 192C630.209 192 632 193.791 632 196C632 198.209 630.209 200 628 200C625.791 200 624 198.209 624 196Z" fill="#1B1F2B"/>
<path d="M576 196C576 193.791 577.791 192 580 192C582.209 192 584 193.791 584 196C584 198.209 582.209 200 580 200C577.791 200 576 198.209 576 196Z" fill="#1B1F2B"/>
<path d="M528 196C528 193.791 529.791 192 532 192C534.209 192 536 193.791 536 196C536 198.209 534.209 200 532 200C529.791 200 528 198.209 528 196Z" fill="#1B1F2B"/>
<path d="M480 196C480 193.791 481.791 192 484 192C486.209 192 488 193.791 488 196C488 198.209 486.209 200 484 200C481.791 200 480 198.209 480 196Z" fill="#1B1F2B"/>
<path d="M432 196C432 193.791 433.791 192 436 192C438.209 192 440 193.791 440 196C440 198.209 438.209 200 436 200C433.791 200 432 198.209 432 196Z" fill="#1B1F2B"/>
<path d="M384 196C384 193.791 385.791 192 388 192C390.209 192 392 193.791 392 196C392 198.209 390.209 200 388 200C385.791 200 384 198.209 384 196Z" fill="#1B1F2B"/>
<path d="M336 196C336 193.791 337.791 192 340 192C342.209 192 344 193.791 344 196C344 198.209 342.209 200 340 200C337.791 200 336 198.209 336 196Z" fill="#1B1F2B"/>
<path d="M288 196C288 193.791 289.791 192 292 192C294.209 192 296 193.791 296 196C296 198.209 294.209 200 292 200C289.791 200 288 198.209 288 196Z" fill="#1B1F2B"/>
<path d="M240 196C240 193.791 241.791 192 244 192C246.209 192 248 193.791 248 196C248 198.209 246.209 200 244 200C241.791 200 240 198.209 240 196Z" fill="#1B1F2B"/>
<path d="M192 196C192 193.791 193.791 192 196 192C198.209 192 200 193.791 200 196C200 198.209 198.209 200 196 200C193.791 200 192 198.209 192 196Z" fill="#1B1F2B"/>
<path d="M144 196C144 193.791 145.791 192 148 192C150.209 192 152 193.791 152 196C152 198.209 150.209 200 148 200C145.791 200 144 198.209 144 196Z" fill="#1B1F2B"/>
<path d="M96 196C96 193.791 97.7909 192 100 192C102.209 192 104 193.791 104 196C104 198.209 102.209 200 100 200C97.7909 200 96 198.209 96 196Z" fill="#1B1F2B"/>
<path d="M48 196C48 193.791 49.7909 192 52 192C54.2091 192 56 193.791 56 196C56 198.209 54.2091 200 52 200C49.7909 200 48 198.209 48 196Z" fill="#1B1F2B"/>
<path d="M0 196C0 193.791 1.79089 192 4 192C6.20911 192 8 193.791 8 196C8 198.209 6.20911 200 4 200C1.79089 200 0 198.209 0 196Z" fill="#1B1F2B"/>
<path d="M1632 148C1632 145.791 1633.79 144 1636 144C1638.21 144 1640 145.791 1640 148C1640 150.209 1638.21 152 1636 152C1633.79 152 1632 150.209 1632 148Z" fill="#1B1F2B"/>
<path d="M1584 148C1584 145.791 1585.79 144 1588 144C1590.21 144 1592 145.791 1592 148C1592 150.209 1590.21 152 1588 152C1585.79 152 1584 150.209 1584 148Z" fill="#1B1F2B"/>
<path d="M1536 148C1536 145.791 1537.79 144 1540 144C1542.21 144 1544 145.791 1544 148C1544 150.209 1542.21 152 1540 152C1537.79 152 1536 150.209 1536 148Z" fill="#00FF85"/>
<path d="M1488 148C1488 145.791 1489.79 144 1492 144C1494.21 144 1496 145.791 1496 148C1496 150.209 1494.21 152 1492 152C1489.79 152 1488 150.209 1488 148Z" fill="#00FF85"/>
<path d="M1440 148C1440 145.791 1441.79 144 1444 144C1446.21 144 1448 145.791 1448 148C1448 150.209 1446.21 152 1444 152C1441.79 152 1440 150.209 1440 148Z" fill="#1B1F2B"/>
<path d="M1392 148C1392 145.791 1393.79 144 1396 144C1398.21 144 1400 145.791 1400 148C1400 150.209 1398.21 152 1396 152C1393.79 152 1392 150.209 1392 148Z" fill="#1B1F2B"/>
<path d="M1344 148C1344 145.791 1345.79 144 1348 144C1350.21 144 1352 145.791 1352 148C1352 150.209 1350.21 152 1348 152C1345.79 152 1344 150.209 1344 148Z" fill="#1B1F2B"/>
<path d="M1296 148C1296 145.791 1297.79 144 1300 144C1302.21 144 1304 145.791 1304 148C1304 150.209 1302.21 152 1300 152C1297.79 152 1296 150.209 1296 148Z" fill="#1B1F2B"/>
<path d="M1248 148C1248 145.791 1249.79 144 1252 144C1254.21 144 1256 145.791 1256 148C1256 150.209 1254.21 152 1252 152C1249.79 152 1248 150.209 1248 148Z" fill="#1B1F2B"/>
<path d="M1200 148C1200 145.791 1201.79 144 1204 144C1206.21 144 1208 145.791 1208 148C1208 150.209 1206.21 152 1204 152C1201.79 152 1200 150.209 1200 148Z" fill="#1B1F2B"/>
<path d="M1152 148C1152 145.791 1153.79 144 1156 144C1158.21 144 1160 145.791 1160 148C1160 150.209 1158.21 152 1156 152C1153.79 152 1152 150.209 1152 148Z" fill="#1B1F2B"/>
<path d="M1104 148C1104 145.791 1105.79 144 1108 144C1110.21 144 1112 145.791 1112 148C1112 150.209 1110.21 152 1108 152C1105.79 152 1104 150.209 1104 148Z" fill="#1B1F2B"/>
<path d="M1056 148C1056 145.791 1057.79 144 1060 144C1062.21 144 1064 145.791 1064 148C1064 150.209 1062.21 152 1060 152C1057.79 152 1056 150.209 1056 148Z" fill="#1B1F2B"/>
<path d="M1008 148C1008 145.791 1009.79 144 1012 144C1014.21 144 1016 145.791 1016 148C1016 150.209 1014.21 152 1012 152C1009.79 152 1008 150.209 1008 148Z" fill="#1B1F2B"/>
<path d="M960 148C960 145.791 961.791 144 964 144C966.209 144 968 145.791 968 148C968 150.209 966.209 152 964 152C961.791 152 960 150.209 960 148Z" fill="#1B1F2B"/>
<path d="M912 148C912 145.791 913.791 144 916 144C918.209 144 920 145.791 920 148C920 150.209 918.209 152 916 152C913.791 152 912 150.209 912 148Z" fill="#1B1F2B"/>
<path d="M864 148C864 145.791 865.791 144 868 144C870.209 144 872 145.791 872 148C872 150.209 870.209 152 868 152C865.791 152 864 150.209 864 148Z" fill="#1B1F2B"/>
<path d="M816 148C816 145.791 817.791 144 820 144C822.209 144 824 145.791 824 148C824 150.209 822.209 152 820 152C817.791 152 816 150.209 816 148Z" fill="#1B1F2B"/>
<path d="M768 148C768 145.791 769.791 144 772 144C774.209 144 776 145.791 776 148C776 150.209 774.209 152 772 152C769.791 152 768 150.209 768 148Z" fill="#1B1F2B"/>
<path d="M720 148C720 145.791 721.791 144 724 144C726.209 144 728 145.791 728 148C728 150.209 726.209 152 724 152C721.791 152 720 150.209 720 148Z" fill="#1B1F2B"/>
<path d="M672 148C672 145.791 673.791 144 676 144C678.209 144 680 145.791 680 148C680 150.209 678.209 152 676 152C673.791 152 672 150.209 672 148Z" fill="#1B1F2B"/>
<path d="M624 148C624 145.791 625.791 144 628 144C630.209 144 632 145.791 632 148C632 150.209 630.209 152 628 152C625.791 152 624 150.209 624 148Z" fill="#1B1F2B"/>
<path d="M576 148C576 145.791 577.791 144 580 144C582.209 144 584 145.791 584 148C584 150.209 582.209 152 580 152C577.791 152 576 150.209 576 148Z" fill="#1B1F2B"/>
<path d="M528 148C528 145.791 529.791 144 532 144C534.209 144 536 145.791 536 148C536 150.209 534.209 152 532 152C529.791 152 528 150.209 528 148Z" fill="#1B1F2B"/>
<path d="M480 148C480 145.791 481.791 144 484 144C486.209 144 488 145.791 488 148C488 150.209 486.209 152 484 152C481.791 152 480 150.209 480 148Z" fill="#1B1F2B"/>
<path d="M432 148C432 145.791 433.791 144 436 144C438.209 144 440 145.791 440 148C440 150.209 438.209 152 436 152C433.791 152 432 150.209 432 148Z" fill="#1B1F2B"/>
<path d="M384 148C384 145.791 385.791 144 388 144C390.209 144 392 145.791 392 148C392 150.209 390.209 152 388 152C385.791 152 384 150.209 384 148Z" fill="#1B1F2B"/>
<path d="M336 148C336 145.791 337.791 144 340 144C342.209 144 344 145.791 344 148C344 150.209 342.209 152 340 152C337.791 152 336 150.209 336 148Z" fill="#1B1F2B"/>
<path d="M288 148C288 145.791 289.791 144 292 144C294.209 144 296 145.791 296 148C296 150.209 294.209 152 292 152C289.791 152 288 150.209 288 148Z" fill="#1B1F2B"/>
<path d="M240 148C240 145.791 241.791 144 244 144C246.209 144 248 145.791 248 148C248 150.209 246.209 152 244 152C241.791 152 240 150.209 240 148Z" fill="#1B1F2B"/>
<path d="M192 148C192 145.791 193.791 144 196 144C198.209 144 200 145.791 200 148C200 150.209 198.209 152 196 152C193.791 152 192 150.209 192 148Z" fill="#1B1F2B"/>
<path d="M144 148C144 145.791 145.791 144 148 144C150.209 144 152 145.791 152 148C152 150.209 150.209 152 148 152C145.791 152 144 150.209 144 148Z" fill="#00FF85"/>
<path d="M96 148C96 145.791 97.7909 144 100 144C102.209 144 104 145.791 104 148C104 150.209 102.209 152 100 152C97.7909 152 96 150.209 96 148Z" fill="#1B1F2B"/>
<path d="M48 148C48 145.791 49.7909 144 52 144C54.2091 144 56 145.791 56 148C56 150.209 54.2091 152 52 152C49.7909 152 48 150.209 48 148Z" fill="#1B1F2B"/>
<path d="M0 148C0 145.791 1.79089 144 4 144C6.20911 144 8 145.791 8 148C8 150.209 6.20911 152 4 152C1.79089 152 0 150.209 0 148Z" fill="#1B1F2B"/>
<path d="M1632 100C1632 97.7909 1633.79 96 1636 96C1638.21 96 1640 97.7909 1640 100C1640 102.209 1638.21 104 1636 104C1633.79 104 1632 102.209 1632 100Z" fill="#1B1F2B"/>
<path d="M1584 100C1584 97.7909 1585.79 96 1588 96C1590.21 96 1592 97.7909 1592 100C1592 102.209 1590.21 104 1588 104C1585.79 104 1584 102.209 1584 100Z" fill="#1B1F2B"/>
<path d="M1536 100C1536 97.7909 1537.79 96 1540 96C1542.21 96 1544 97.7909 1544 100C1544 102.209 1542.21 104 1540 104C1537.79 104 1536 102.209 1536 100Z" fill="#1B1F2B"/>
<path d="M1488 100C1488 97.7909 1489.79 96 1492 96C1494.21 96 1496 97.7909 1496 100C1496 102.209 1494.21 104 1492 104C1489.79 104 1488 102.209 1488 100Z" fill="#1B1F2B"/>
<path d="M1440 100C1440 97.7909 1441.79 96 1444 96C1446.21 96 1448 97.7909 1448 100C1448 102.209 1446.21 104 1444 104C1441.79 104 1440 102.209 1440 100Z" fill="#00FF85"/>
<path d="M1392 100C1392 97.7909 1393.79 96 1396 96C1398.21 96 1400 97.7909 1400 100C1400 102.209 1398.21 104 1396 104C1393.79 104 1392 102.209 1392 100Z" fill="#00FF85"/>
<path d="M1344 100C1344 97.7909 1345.79 96 1348 96C1350.21 96 1352 97.7909 1352 100C1352 102.209 1350.21 104 1348 104C1345.79 104 1344 102.209 1344 100Z" fill="#1B1F2B"/>
<path d="M1296 100C1296 97.7909 1297.79 96 1300 96C1302.21 96 1304 97.7909 1304 100C1304 102.209 1302.21 104 1300 104C1297.79 104 1296 102.209 1296 100Z" fill="#1B1F2B"/>
<path d="M1248 100C1248 97.7909 1249.79 96 1252 96C1254.21 96 1256 97.7909 1256 100C1256 102.209 1254.21 104 1252 104C1249.79 104 1248 102.209 1248 100Z" fill="#1B1F2B"/>
<path d="M1200 100C1200 97.7909 1201.79 96 1204 96C1206.21 96 1208 97.7909 1208 100C1208 102.209 1206.21 104 1204 104C1201.79 104 1200 102.209 1200 100Z" fill="#1B1F2B"/>
<path d="M1152 100C1152 97.7909 1153.79 96 1156 96C1158.21 96 1160 97.7909 1160 100C1160 102.209 1158.21 104 1156 104C1153.79 104 1152 102.209 1152 100Z" fill="#1B1F2B"/>
<path d="M1104 100C1104 97.7909 1105.79 96 1108 96C1110.21 96 1112 97.7909 1112 100C1112 102.209 1110.21 104 1108 104C1105.79 104 1104 102.209 1104 100Z" fill="#1B1F2B"/>
<path d="M1056 100C1056 97.7909 1057.79 96 1060 96C1062.21 96 1064 97.7909 1064 100C1064 102.209 1062.21 104 1060 104C1057.79 104 1056 102.209 1056 100Z" fill="#1B1F2B"/>
<path d="M1008 100C1008 97.7909 1009.79 96 1012 96C1014.21 96 1016 97.7909 1016 100C1016 102.209 1014.21 104 1012 104C1009.79 104 1008 102.209 1008 100Z" fill="#1B1F2B"/>
<path d="M960 100C960 97.7909 961.791 96 964 96C966.209 96 968 97.7909 968 100C968 102.209 966.209 104 964 104C961.791 104 960 102.209 960 100Z" fill="#1B1F2B"/>
<path d="M912 100C912 97.7909 913.791 96 916 96C918.209 96 920 97.7909 920 100C920 102.209 918.209 104 916 104C913.791 104 912 102.209 912 100Z" fill="#1B1F2B"/>
<path d="M864 100C864 97.7909 865.791 96 868 96C870.209 96 872 97.7909 872 100C872 102.209 870.209 104 868 104C865.791 104 864 102.209 864 100Z" fill="#1B1F2B"/>
<path d="M816 100C816 97.7909 817.791 96 820 96C822.209 96 824 97.7909 824 100C824 102.209 822.209 104 820 104C817.791 104 816 102.209 816 100Z" fill="#1B1F2B"/>
<path d="M768 100C768 97.7909 769.791 96 772 96C774.209 96 776 97.7909 776 100C776 102.209 774.209 104 772 104C769.791 104 768 102.209 768 100Z" fill="#1B1F2B"/>
<path d="M720 100C720 97.7909 721.791 96 724 96C726.209 96 728 97.7909 728 100C728 102.209 726.209 104 724 104C721.791 104 720 102.209 720 100Z" fill="#1B1F2B"/>
<path d="M672 100C672 97.7909 673.791 96 676 96C678.209 96 680 97.7909 680 100C680 102.209 678.209 104 676 104C673.791 104 672 102.209 672 100Z" fill="#1B1F2B"/>
<path d="M624 100C624 97.7909 625.791 96 628 96C630.209 96 632 97.7909 632 100C632 102.209 630.209 104 628 104C625.791 104 624 102.209 624 100Z" fill="#1B1F2B"/>
<path d="M576 100C576 97.7909 577.791 96 580 96C582.209 96 584 97.7909 584 100C584 102.209 582.209 104 580 104C577.791 104 576 102.209 576 100Z" fill="#1B1F2B"/>
<path d="M528 100C528 97.7909 529.791 96 532 96C534.209 96 536 97.7909 536 100C536 102.209 534.209 104 532 104C529.791 104 528 102.209 528 100Z" fill="#1B1F2B"/>
<path d="M480 100C480 97.7909 481.791 96 484 96C486.209 96 488 97.7909 488 100C488 102.209 486.209 104 484 104C481.791 104 480 102.209 480 100Z" fill="#1B1F2B"/>
<path d="M432 100C432 97.7909 433.791 96 436 96C438.209 96 440 97.7909 440 100C440 102.209 438.209 104 436 104C433.791 104 432 102.209 432 100Z" fill="#1B1F2B"/>
<path d="M384 100C384 97.7909 385.791 96 388 96C390.209 96 392 97.7909 392 100C392 102.209 390.209 104 388 104C385.791 104 384 102.209 384 100Z" fill="#1B1F2B"/>
<path d="M336 100C336 97.7909 337.791 96 340 96C342.209 96 344 97.7909 344 100C344 102.209 342.209 104 340 104C337.791 104 336 102.209 336 100Z" fill="#1B1F2B"/>
<path d="M288 100C288 97.7909 289.791 96 292 96C294.209 96 296 97.7909 296 100C296 102.209 294.209 104 292 104C289.791 104 288 102.209 288 100Z" fill="#1B1F2B"/>
<path d="M240 100C240 97.7909 241.791 96 244 96C246.209 96 248 97.7909 248 100C248 102.209 246.209 104 244 104C241.791 104 240 102.209 240 100Z" fill="#1B1F2B"/>
<path d="M192 100C192 97.7909 193.791 96 196 96C198.209 96 200 97.7909 200 100C200 102.209 198.209 104 196 104C193.791 104 192 102.209 192 100Z" fill="#00FF85"/>
<path d="M144 100C144 97.7909 145.791 96 148 96C150.209 96 152 97.7909 152 100C152 102.209 150.209 104 148 104C145.791 104 144 102.209 144 100Z" fill="#1B1F2B"/>
<path d="M96 100C96 97.7909 97.7909 96 100 96C102.209 96 104 97.7909 104 100C104 102.209 102.209 104 100 104C97.7909 104 96 102.209 96 100Z" fill="#1B1F2B"/>
<path d="M48 100C48 97.7909 49.7909 96 52 96C54.2091 96 56 97.7909 56 100C56 102.209 54.2091 104 52 104C49.7909 104 48 102.209 48 100Z" fill="#1B1F2B"/>
<path d="M0 100C0 97.7909 1.79089 96 4 96C6.20911 96 8 97.7909 8 100C8 102.209 6.20911 104 4 104C1.79089 104 0 102.209 0 100Z" fill="#1B1F2B"/>
<path d="M1632 52C1632 49.7909 1633.79 48 1636 48C1638.21 48 1640 49.7909 1640 52C1640 54.2091 1638.21 56 1636 56C1633.79 56 1632 54.2091 1632 52Z" fill="#1B1F2B"/>
<path d="M1584 52C1584 49.7909 1585.79 48 1588 48C1590.21 48 1592 49.7909 1592 52C1592 54.2091 1590.21 56 1588 56C1585.79 56 1584 54.2091 1584 52Z" fill="#1B1F2B"/>
<path d="M1536 52C1536 49.7909 1537.79 48 1540 48C1542.21 48 1544 49.7909 1544 52C1544 54.2091 1542.21 56 1540 56C1537.79 56 1536 54.2091 1536 52Z" fill="#1B1F2B"/>
<path d="M1488 52C1488 49.7909 1489.79 48 1492 48C1494.21 48 1496 49.7909 1496 52C1496 54.2091 1494.21 56 1492 56C1489.79 56 1488 54.2091 1488 52Z" fill="#1B1F2B"/>
<path d="M1440 52C1440 49.7909 1441.79 48 1444 48C1446.21 48 1448 49.7909 1448 52C1448 54.2091 1446.21 56 1444 56C1441.79 56 1440 54.2091 1440 52Z" fill="#1B1F2B"/>
<path d="M1392 52C1392 49.7909 1393.79 48 1396 48C1398.21 48 1400 49.7909 1400 52C1400 54.2091 1398.21 56 1396 56C1393.79 56 1392 54.2091 1392 52Z" fill="#1B1F2B"/>
<path d="M1344 52C1344 49.7909 1345.79 48 1348 48C1350.21 48 1352 49.7909 1352 52C1352 54.2091 1350.21 56 1348 56C1345.79 56 1344 54.2091 1344 52Z" fill="#1B1F2B"/>
<path d="M1296 52C1296 49.7909 1297.79 48 1300 48C1302.21 48 1304 49.7909 1304 52C1304 54.2091 1302.21 56 1300 56C1297.79 56 1296 54.2091 1296 52Z" fill="#1B1F2B"/>
<path d="M1248 52C1248 49.7909 1249.79 48 1252 48C1254.21 48 1256 49.7909 1256 52C1256 54.2091 1254.21 56 1252 56C1249.79 56 1248 54.2091 1248 52Z" fill="#1B1F2B"/>
<path d="M1200 52C1200 49.7909 1201.79 48 1204 48C1206.21 48 1208 49.7909 1208 52C1208 54.2091 1206.21 56 1204 56C1201.79 56 1200 54.2091 1200 52Z" fill="#1B1F2B"/>
<path d="M1152 52C1152 49.7909 1153.79 48 1156 48C1158.21 48 1160 49.7909 1160 52C1160 54.2091 1158.21 56 1156 56C1153.79 56 1152 54.2091 1152 52Z" fill="#1B1F2B"/>
<path d="M1104 52C1104 49.7909 1105.79 48 1108 48C1110.21 48 1112 49.7909 1112 52C1112 54.2091 1110.21 56 1108 56C1105.79 56 1104 54.2091 1104 52Z" fill="#1B1F2B"/>
<path d="M1056 52C1056 49.7909 1057.79 48 1060 48C1062.21 48 1064 49.7909 1064 52C1064 54.2091 1062.21 56 1060 56C1057.79 56 1056 54.2091 1056 52Z" fill="#1B1F2B"/>
<path d="M1008 52C1008 49.7909 1009.79 48 1012 48C1014.21 48 1016 49.7909 1016 52C1016 54.2091 1014.21 56 1012 56C1009.79 56 1008 54.2091 1008 52Z" fill="#1B1F2B"/>
<path d="M960 52C960 49.7909 961.791 48 964 48C966.209 48 968 49.7909 968 52C968 54.2091 966.209 56 964 56C961.791 56 960 54.2091 960 52Z" fill="#00FF85"/>
<path d="M912 52C912 49.7909 913.791 48 916 48C918.209 48 920 49.7909 920 52C920 54.2091 918.209 56 916 56C913.791 56 912 54.2091 912 52Z" fill="#00FF85"/>
<path d="M864 52C864 49.7909 865.791 48 868 48C870.209 48 872 49.7909 872 52C872 54.2091 870.209 56 868 56C865.791 56 864 54.2091 864 52Z" fill="#00FF85"/>
<path d="M816 52C816 49.7909 817.791 48 820 48C822.209 48 824 49.7909 824 52C824 54.2091 822.209 56 820 56C817.791 56 816 54.2091 816 52Z" fill="#1B1F2B"/>
<path d="M768 52C768 49.7909 769.791 48 772 48C774.209 48 776 49.7909 776 52C776 54.2091 774.209 56 772 56C769.791 56 768 54.2091 768 52Z" fill="#1B1F2B"/>
<path d="M720 52C720 49.7909 721.791 48 724 48C726.209 48 728 49.7909 728 52C728 54.2091 726.209 56 724 56C721.791 56 720 54.2091 720 52Z" fill="#1B1F2B"/>
<path d="M672 52C672 49.7909 673.791 48 676 48C678.209 48 680 49.7909 680 52C680 54.2091 678.209 56 676 56C673.791 56 672 54.2091 672 52Z" fill="#1B1F2B"/>
<path d="M624 52C624 49.7909 625.791 48 628 48C630.209 48 632 49.7909 632 52C632 54.2091 630.209 56 628 56C625.791 56 624 54.2091 624 52Z" fill="#1B1F2B"/>
<path d="M576 52C576 49.7909 577.791 48 580 48C582.209 48 584 49.7909 584 52C584 54.2091 582.209 56 580 56C577.791 56 576 54.2091 576 52Z" fill="#1B1F2B"/>
<path d="M528 52C528 49.7909 529.791 48 532 48C534.209 48 536 49.7909 536 52C536 54.2091 534.209 56 532 56C529.791 56 528 54.2091 528 52Z" fill="#1B1F2B"/>
<path d="M480 52C480 49.7909 481.791 48 484 48C486.209 48 488 49.7909 488 52C488 54.2091 486.209 56 484 56C481.791 56 480 54.2091 480 52Z" fill="#1B1F2B"/>
<path d="M432 52C432 49.7909 433.791 48 436 48C438.209 48 440 49.7909 440 52C440 54.2091 438.209 56 436 56C433.791 56 432 54.2091 432 52Z" fill="#1B1F2B"/>
<path d="M384 52C384 49.7909 385.791 48 388 48C390.209 48 392 49.7909 392 52C392 54.2091 390.209 56 388 56C385.791 56 384 54.2091 384 52Z" fill="#1B1F2B"/>
<path d="M336 52C336 49.7909 337.791 48 340 48C342.209 48 344 49.7909 344 52C344 54.2091 342.209 56 340 56C337.791 56 336 54.2091 336 52Z" fill="#1B1F2B"/>
<path d="M288 52C288 49.7909 289.791 48 292 48C294.209 48 296 49.7909 296 52C296 54.2091 294.209 56 292 56C289.791 56 288 54.2091 288 52Z" fill="#1B1F2B"/>
<path d="M240 52C240 49.7909 241.791 48 244 48C246.209 48 248 49.7909 248 52C248 54.2091 246.209 56 244 56C241.791 56 240 54.2091 240 52Z" fill="#1B1F2B"/>
<path d="M192 52C192 49.7909 193.791 48 196 48C198.209 48 200 49.7909 200 52C200 54.2091 198.209 56 196 56C193.791 56 192 54.2091 192 52Z" fill="#00FF85"/>
<path d="M144 52C144 49.7909 145.791 48 148 48C150.209 48 152 49.7909 152 52C152 54.2091 150.209 56 148 56C145.791 56 144 54.2091 144 52Z" fill="#1B1F2B"/>
<path d="M96 52C96 49.7909 97.7909 48 100 48C102.209 48 104 49.7909 104 52C104 54.2091 102.209 56 100 56C97.7909 56 96 54.2091 96 52Z" fill="#1B1F2B"/>
<path d="M48 52C48 49.7909 49.7909 48 52 48C54.2091 48 56 49.7909 56 52C56 54.2091 54.2091 56 52 56C49.7909 56 48 54.2091 48 52Z" fill="#1B1F2B"/>
<path d="M0 52C0 49.7909 1.79089 48 4 48C6.20911 48 8 49.7909 8 52C8 54.2091 6.20911 56 4 56C1.79089 56 0 54.2091 0 52Z" fill="#1B1F2B"/>
<path d="M1632 4C1632 1.79086 1633.79 0 1636 0C1638.21 0 1640 1.79086 1640 4C1640 6.20914 1638.21 8 1636 8C1633.79 8 1632 6.20914 1632 4Z" fill="#1B1F2B"/>
<path d="M1584 4C1584 1.79086 1585.79 0 1588 0C1590.21 0 1592 1.79086 1592 4C1592 6.20914 1590.21 8 1588 8C1585.79 8 1584 6.20914 1584 4Z" fill="#1B1F2B"/>
<path d="M1536 4C1536 1.79086 1537.79 0 1540 0C1542.21 0 1544 1.79086 1544 4C1544 6.20914 1542.21 8 1540 8C1537.79 8 1536 6.20914 1536 4Z" fill="#1B1F2B"/>
<path d="M1488 4C1488 1.79086 1489.79 0 1492 0C1494.21 0 1496 1.79086 1496 4C1496 6.20914 1494.21 8 1492 8C1489.79 8 1488 6.20914 1488 4Z" fill="#1B1F2B"/>
<path d="M1440 4C1440 1.79086 1441.79 0 1444 0C1446.21 0 1448 1.79086 1448 4C1448 6.20914 1446.21 8 1444 8C1441.79 8 1440 6.20914 1440 4Z" fill="#1B1F2B"/>
<path d="M1392 4C1392 1.79086 1393.79 0 1396 0C1398.21 0 1400 1.79086 1400 4C1400 6.20914 1398.21 8 1396 8C1393.79 8 1392 6.20914 1392 4Z" fill="#1B1F2B"/>
<path d="M1344 4C1344 1.79086 1345.79 0 1348 0C1350.21 0 1352 1.79086 1352 4C1352 6.20914 1350.21 8 1348 8C1345.79 8 1344 6.20914 1344 4Z" fill="#1B1F2B"/>
<path d="M1296 4C1296 1.79086 1297.79 0 1300 0C1302.21 0 1304 1.79086 1304 4C1304 6.20914 1302.21 8 1300 8C1297.79 8 1296 6.20914 1296 4Z" fill="#1B1F2B"/>
<path d="M1248 4C1248 1.79086 1249.79 0 1252 0C1254.21 0 1256 1.79086 1256 4C1256 6.20914 1254.21 8 1252 8C1249.79 8 1248 6.20914 1248 4Z" fill="#1B1F2B"/>
<path d="M1200 4C1200 1.79086 1201.79 0 1204 0C1206.21 0 1208 1.79086 1208 4C1208 6.20914 1206.21 8 1204 8C1201.79 8 1200 6.20914 1200 4Z" fill="#1B1F2B"/>
<path d="M1152 4C1152 1.79086 1153.79 0 1156 0C1158.21 0 1160 1.79086 1160 4C1160 6.20914 1158.21 8 1156 8C1153.79 8 1152 6.20914 1152 4Z" fill="#1B1F2B"/>
<path d="M1104 4C1104 1.79086 1105.79 0 1108 0C1110.21 0 1112 1.79086 1112 4C1112 6.20914 1110.21 8 1108 8C1105.79 8 1104 6.20914 1104 4Z" fill="#1B1F2B"/>
<path d="M1056 4C1056 1.79086 1057.79 0 1060 0C1062.21 0 1064 1.79086 1064 4C1064 6.20914 1062.21 8 1060 8C1057.79 8 1056 6.20914 1056 4Z" fill="#1B1F2B"/>
<path d="M1008 4C1008 1.79086 1009.79 0 1012 0C1014.21 0 1016 1.79086 1016 4C1016 6.20914 1014.21 8 1012 8C1009.79 8 1008 6.20914 1008 4Z" fill="#1B1F2B"/>
<path d="M960 4C960 1.79086 961.791 0 964 0C966.209 0 968 1.79086 968 4C968 6.20914 966.209 8 964 8C961.791 8 960 6.20914 960 4Z" fill="#1B1F2B"/>
<path d="M912 4C912 1.79086 913.791 0 916 0C918.209 0 920 1.79086 920 4C920 6.20914 918.209 8 916 8C913.791 8 912 6.20914 912 4Z" fill="#1B1F2B"/>
<path d="M864 4C864 1.79086 865.791 0 868 0C870.209 0 872 1.79086 872 4C872 6.20914 870.209 8 868 8C865.791 8 864 6.20914 864 4Z" fill="#1B1F2B"/>
<path d="M816 4C816 1.79086 817.791 0 820 0C822.209 0 824 1.79086 824 4C824 6.20914 822.209 8 820 8C817.791 8 816 6.20914 816 4Z" fill="#1B1F2B"/>
<path d="M768 4C768 1.79086 769.791 0 772 0C774.209 0 776 1.79086 776 4C776 6.20914 774.209 8 772 8C769.791 8 768 6.20914 768 4Z" fill="#1B1F2B"/>
<path d="M720 4C720 1.79086 721.791 0 724 0C726.209 0 728 1.79086 728 4C728 6.20914 726.209 8 724 8C721.791 8 720 6.20914 720 4Z" fill="#1B1F2B"/>
<path d="M672 4C672 1.79086 673.791 0 676 0C678.209 0 680 1.79086 680 4C680 6.20914 678.209 8 676 8C673.791 8 672 6.20914 672 4Z" fill="#1B1F2B"/>
<path d="M624 4C624 1.79086 625.791 0 628 0C630.209 0 632 1.79086 632 4C632 6.20914 630.209 8 628 8C625.791 8 624 6.20914 624 4Z" fill="#1B1F2B"/>
<path d="M576 4C576 1.79086 577.791 0 580 0C582.209 0 584 1.79086 584 4C584 6.20914 582.209 8 580 8C577.791 8 576 6.20914 576 4Z" fill="#1B1F2B"/>
<path d="M528 4C528 1.79086 529.791 0 532 0C534.209 0 536 1.79086 536 4C536 6.20914 534.209 8 532 8C529.791 8 528 6.20914 528 4Z" fill="#1B1F2B"/>
<path d="M480 4C480 1.79086 481.791 0 484 0C486.209 0 488 1.79086 488 4C488 6.20914 486.209 8 484 8C481.791 8 480 6.20914 480 4Z" fill="#1B1F2B"/>
<path d="M432 4C432 1.79086 433.791 0 436 0C438.209 0 440 1.79086 440 4C440 6.20914 438.209 8 436 8C433.791 8 432 6.20914 432 4Z" fill="#1B1F2B"/>
<path d="M384 4C384 1.79086 385.791 0 388 0C390.209 0 392 1.79086 392 4C392 6.20914 390.209 8 388 8C385.791 8 384 6.20914 384 4Z" fill="#1B1F2B"/>
<path d="M336 4C336 1.79086 337.791 0 340 0C342.209 0 344 1.79086 344 4C344 6.20914 342.209 8 340 8C337.791 8 336 6.20914 336 4Z" fill="#1B1F2B"/>
<path d="M288 4C288 1.79086 289.791 0 292 0C294.209 0 296 1.79086 296 4C296 6.20914 294.209 8 292 8C289.791 8 288 6.20914 288 4Z" fill="#1B1F2B"/>
<path d="M240 4C240 1.79086 241.791 0 244 0C246.209 0 248 1.79086 248 4C248 6.20914 246.209 8 244 8C241.791 8 240 6.20914 240 4Z" fill="#1B1F2B"/>
<path d="M192 4C192 1.79086 193.791 0 196 0C198.209 0 200 1.79086 200 4C200 6.20914 198.209 8 196 8C193.791 8 192 6.20914 192 4Z" fill="#1B1F2B"/>
<path d="M144 4C144 1.79086 145.791 0 148 0C150.209 0 152 1.79086 152 4C152 6.20914 150.209 8 148 8C145.791 8 144 6.20914 144 4Z" fill="#1B1F2B"/>
<path d="M96 4C96 1.79086 97.7909 0 100 0C102.209 0 104 1.79086 104 4C104 6.20914 102.209 8 100 8C97.7909 8 96 6.20914 96 4Z" fill="#1B1F2B"/>
<path d="M48 4C48 1.79086 49.7909 0 52 0C54.2091 0 56 1.79086 56 4C56 6.20914 54.2091 8 52 8C49.7909 8 48 6.20914 48 4Z" fill="#1B1F2B"/>
<path d="M0 4C0 1.79086 1.79089 0 4 0C6.20911 0 8 1.79086 8 4C8 6.20914 6.20911 8 4 8C1.79089 8 0 6.20914 0 4Z" fill="#1B1F2B"/>
<path d="M964 52L868 52" stroke="#00FF85"/>
<path d="M1540 148H1492L1444 100H1396" stroke="#00FF85"/>
<path d="M148 148L196 100" stroke="#00FF85"/>
<path d="M1588 52V148L1636 196" stroke="#1B1F2A"/>
<path d="M196 100V52" stroke="#00FF85"/>
<path d="M100 196H52L52 148H4" stroke="#1B1F2A"/>
<path d="M1300 52L1252 52L1204 100V52" stroke="#1B1F2A"/>
<path d="M532 4L484 52L436 52V100" stroke="#1B1F2A"/>
</g>
<defs>
<linearGradient id="paint0_linear_1_102" x1="2460" y1="200" x2="2460" y2="400" gradientUnits="userSpaceOnUse">
<stop stop-color="#D9D9D9"/>
<stop offset="1" stop-color="#D9D9D9" stop-opacity="0"/>
</linearGradient>
</defs>
</svg>
